<svg xmlns="http://www.w3.org/2000/svg" viewBox="0 0 20 16.1"><path d="M10.25,12.21A3.91,3.91,0,1,1,14.16,8.3,3.91,3.91,0,0,1,10.25,12.21Zm0-6.32A2.41,2.41,0,1,0,12.66,8.3,2.41,2.41,0,0,0,10.25,5.89Z" transform="translate(-0.25 -0.25)" style="fill:#bdbdbd"/><path d="M10.25,16.35h0c-4.14,0-7.85-2.9-9.94-7.75A.76.76,0,0,1,.31,8C2.4,3.15,6.11.25,10.25.25h0c4.14,0,7.85,2.9,9.94,7.76a.76.76,0,0,1,0,.59c-2.09,4.85-5.8,7.75-9.94,7.75Zm-8.43-8c1.86,4.11,5,6.55,8.43,6.55s6.57-2.44,8.43-6.55c-1.86-4.11-5-6.55-8.43-6.55S3.68,4.19,1.82,8.3Z" transform="translate(-0.25 -0.25)" style="fill:#bdbdbd"/></svg>