<svg xmlns="http://www.w3.org/2000/svg" viewBox="0 0 20 16.1"><path d="M20.19,8a15.33,15.33,0,0,0-3-4.57l2.11-1.76a.75.75,0,0,0,.1-1,.76.76,0,0,0-1.06-.1L16.13,2.42A9.31,9.31,0,0,0,10.25.25h0C6.11.25,2.4,3.15.31,8a.76.76,0,0,0,0,.59,15.27,15.27,0,0,0,2.95,4.56L1.15,14.92A.74.74,0,0,0,1.06,16a.72.72,0,0,0,.57.27.72.72,0,0,0,.48-.17l2.26-1.89a9.31,9.31,0,0,0,5.88,2.17h0c4.14,0,7.85-2.9,9.94-7.75A.76.76,0,0,0,20.19,8ZM1.82,8.3c1.86-4.11,5-6.55,8.43-6.55A7.76,7.76,0,0,1,15,3.41L12.7,5.28a3.85,3.85,0,0,0-2.45-.89A3.92,3.92,0,0,0,6.34,8.3a3.84,3.84,0,0,0,.5,1.87l-2.43,2A13.41,13.41,0,0,1,1.82,8.3Zm10.84,0a2.4,2.4,0,0,1-3.68,2l3.51-2.93A2.43,2.43,0,0,1,12.66,8.3Zm-4.82,0a2.4,2.4,0,0,1,3.68-2L8,9.19A2.35,2.35,0,0,1,7.84,8.3Zm2.41,6.55a7.75,7.75,0,0,1-4.7-1.65L7.8,11.32a3.85,3.85,0,0,0,2.45.89A3.91,3.91,0,0,0,14.16,8.3a3.84,3.84,0,0,0-.5-1.87l2.43-2A13.41,13.41,0,0,1,18.68,8.3C16.82,12.41,13.69,14.85,10.25,14.85Z" transform="translate(-0.25 -0.25)" style="fill:#bdbdbd"/></svg>